# xmcd
#
# Track frame offsets:
#	150
#	12977
#	23795
#	34362
#	44425
#	55670
#	67022
#	77147
#	87175
#	97629
#	109517
#	120030
#
# Disc length: 1756
#
# Revision: 2
# Processed by: cddbd v1.5.1PL0 Copyright (c) Steve Scherf et al.
# Submitted via: CDex 1.51
# Normalized: r0:TDELIM( - ),TSWAP
#
DISCID=8606da0c
DTITLE=Various Artist - Country Legends Volume Two Disc 2
DYEAR=1900
DGENRE=Country
TTITLE0=The Browns - The Three Bells
TTITLE1=Hank Locklin - Please Help Me I'm Falling
TTITLE2=Jim Reeves - He'll Have To Go
TTITLE3=Roger Miller - When Two Worlds Collide
TTITLE4=Carl Belew - Hello Out There
TTITLE5=Jim Reeves and Dottie West - Love Is No Excuse
TTITLE6=George Hamilton IV - Abilene
TTITLE7=Norma Jean - Go Cat Go
TTITLE8=Jim Ed Brown - Pop A Top
TTITLE9=Skeeter Davis - The End Of The World
TTITLE10=Connie Smith - Once A Day
TTITLE11=Porter Wagoner and Dolly Parton - The Last Thing On My Mind
EXTD=
EXTT0=
EXTT1=
EXTT2=
EXTT3=
EXTT4=
EXTT5=
EXTT6=
EXTT7=
EXTT8=
EXTT9=
EXTT10=
EXTT11=
PLAYORDER=
